# xmcd
#
# Track frame offsets:
#	150
#	42927
#	94672
#	169467
#	216778
#	277322
#
# Disc length: 4529 seconds
#
# Revision: 0
# Processed by: cddbd v1.5.2PL0 Copyright (c) Steve Scherf et al.
# Submitted via: dBpowerAMP V4.0
#
DISCID=5911af06
DTITLE=Sándor Márai - Glöd - CD-BOK 01/06
DYEAR=2005
DGENRE=CD-BOK
TTITLE0=01.01
TTITLE1=01.02
TTITLE2=01.03
TTITLE3=01.04
TTITLE4=01.05
TTITLE5=01.06
EXTD=
EXTT0=
EXTT1=
EXTT2=
EXTT3=
EXTT4=
EXTT5=
PLAYORDER=
